<?xml version="1.0" encoding="UTF-8" standalone="no"?>
<!DOCTYPE svg PUBLIC "-//W3C//DTD SVG 1.1//EN" "http://www.w3.org/Graphics/SVG/1.1/DTD/svg11.dtd">
<svg width="100%" height="100%" viewBox="0 0 345 224" version="1.1" xmlns="http://www.w3.org/2000/svg" xmlns:xlink="http://www.w3.org/1999/xlink" xml:space="preserve" xmlns:serif="http://www.serif.com/" style="fill-rule:evenodd;clip-rule:evenodd;stroke-linejoin:round;stroke-miterlimit:2;">
    <g>
        <path d="M0.5,12.5C0.5,5.873 5.873,0.5 12.5,0.5L332.5,0.5C339.127,0.5 344.5,5.873 344.5,12.5L344.5,211.5C344.5,218.127 339.127,223.5 332.5,223.5L12.5,223.5C5.873,223.5 0.5,218.127 0.5,211.5L0.5,12.5Z" style="fill:url(#_Linear1);fill-rule:nonzero;"/>
        <path d="M0.5,12.5C0.5,5.873 5.873,0.5 12.5,0.5L332.5,0.5C339.127,0.5 344.5,5.873 344.5,12.5L344.5,211.5C344.5,218.127 339.127,223.5 332.5,223.5L12.5,223.5C5.873,223.5 0.5,218.127 0.5,211.5L0.5,12.5Z" style="fill:url(#_Linear2);fill-rule:nonzero;"/>
        <path d="M0.5,12.5C0.5,5.873 5.873,0.5 12.5,0.5L332.5,0.5C339.127,0.5 344.5,5.873 344.5,12.5L344.5,211.5C344.5,218.127 339.127,223.5 332.5,223.5L12.5,223.5C5.873,223.5 0.5,218.127 0.5,211.5L0.5,12.5Z" style="fill:url(#_Linear3);fill-rule:nonzero;"/>
        <path d="M0.5,12.5C0.5,5.873 5.873,0.5 12.5,0.5L332.5,0.5C339.127,0.5 344.5,5.873 344.5,12.5L344.5,211.5C344.5,218.127 339.127,223.5 332.5,223.5L12.5,223.5C5.873,223.5 0.5,218.127 0.5,211.5L0.5,12.5Z" style="fill:url(#_Linear4);fill-rule:nonzero;"/>
        <path d="M0.5,12.5C0.5,5.873 5.873,0.5 12.5,0.5L332.5,0.5C339.127,0.5 344.5,5.873 344.5,12.5L344.5,211.5C344.5,218.127 339.127,223.5 332.5,223.5L12.5,223.5C5.873,223.5 0.5,218.127 0.5,211.5L0.5,12.5Z" style="fill:url(#_Linear5);fill-rule:nonzero;"/>
        <g id="Frame-6.svg" serif:id="Frame 6.svg" transform="matrix(1,0,0,1,261.194,129.103)">
            <g transform="matrix(1,0,0,1,-84.5,-95)">
                <g opacity="0.1">
                    <g>
                        <clipPath id="_clip6">
                            <path d="M0.5,0.5L168.5,0.5L168.5,177.5C168.5,184.127 163.127,189.5 156.5,189.5L0.5,189.5L0.5,0.5Z"/>
                        </clipPath>
                        <g clip-path="url(#_clip6)">
                            <path d="M239.665,230.691L156.304,230.691L156.25,230.65L155.593,230.143L52.288,149.507L94.57,115.595L238.967,230.143L239.665,230.691Z" style="fill:rgb(187,187,187);fill-rule:nonzero;"/>
                            <path d="M239.665,0.5L156.304,0.5L156.25,0.541L155.593,1.048L52.288,81.684L94.57,115.596L238.967,1.048L239.665,0.5Z" style="fill:url(#_Linear7);fill-rule:nonzero;"/>
                            <path d="M52.303,81.67L52.303,149.522L52.317,230.144L52.317,230.692L52.262,230.651L51.619,230.144L1.348,190.409L1.225,190.313L0.5,189.751L0.5,41.441L1.225,40.88L1.348,40.784L51.619,1.048L52.262,0.541L52.317,0.5L52.317,1.048L52.303,81.67Z" style="fill:rgb(187,187,187);fill-rule:nonzero;"/>
                        </g>
                    </g>
                </g>
            </g>
        </g>
    </g>
    <defs>
        <linearGradient id="_Linear1" x1="0" y1="0" x2="1" y2="0" gradientUnits="userSpaceOnUse" gradientTransform="matrix(150.5,187,-187,150.5,81.5,25)"><stop offset="0" style="stop-color:rgb(11,29,46);stop-opacity:0"/><stop offset="0.68" style="stop-color:rgb(9,25,41);stop-opacity:1"/><stop offset="0.68" style="stop-color:rgb(5,14,23);stop-opacity:1"/><stop offset="0.89" style="stop-color:rgb(11,29,46);stop-opacity:0.7"/><stop offset="1" style="stop-color:rgb(11,29,46);stop-opacity:0.7"/></linearGradient>
        <linearGradient id="_Linear2" x1="0" y1="0" x2="1" y2="0" gradientUnits="userSpaceOnUse" gradientTransform="matrix(194.73,260.558,-260.558,194.73,0.500012,74.5)"><stop offset="0" style="stop-color:black;stop-opacity:0"/><stop offset="0.4" style="stop-color:black;stop-opacity:0"/><stop offset="0.53" style="stop-color:rgb(167,167,167);stop-opacity:0.13"/><stop offset="0.67" style="stop-color:black;stop-opacity:0.23"/><stop offset="1" style="stop-color:black;stop-opacity:1"/></linearGradient>
        <linearGradient id="_Linear3" x1="0" y1="0" x2="1" y2="0" gradientUnits="userSpaceOnUse" gradientTransform="matrix(344,223,-223,344,0.5,0.5)"><stop offset="0" style="stop-color:rgb(11,29,46);stop-opacity:1"/><stop offset="0.55" style="stop-color:rgb(11,29,46);stop-opacity:0"/><stop offset="1" style="stop-color:rgb(11,29,46);stop-opacity:0"/></linearGradient>
        <linearGradient id="_Linear4" x1="0" y1="0" x2="1" y2="0" gradientUnits="userSpaceOnUse" gradientTransform="matrix(-158.5,71,-71,-158.5,162.5,118.5)"><stop offset="0" style="stop-color:rgb(11,29,46);stop-opacity:0.5"/><stop offset="1" style="stop-color:rgb(11,29,46);stop-opacity:0"/></linearGradient>
        <linearGradient id="_Linear5" x1="0" y1="0" x2="1" y2="0" gradientUnits="userSpaceOnUse" gradientTransform="matrix(203,-254.5,254.5,203,141.5,255)"><stop offset="0" style="stop-color:rgb(11,29,46);stop-opacity:0"/><stop offset="1" style="stop-color:rgb(11,29,46);stop-opacity:0.2"/></linearGradient>
        <linearGradient id="_Linear7" x1="0" y1="0" x2="1" y2="0" gradientUnits="userSpaceOnUse" gradientTransform="matrix(85.4999,-77.5,77.5,85.4999,81.5001,95)"><stop offset="0" style="stop-color:rgb(187,187,187);stop-opacity:1"/><stop offset="1" style="stop-color:rgb(187,187,187);stop-opacity:0"/></linearGradient>
    </defs>
</svg>
