<svg xmlns="http://www.w3.org/2000/svg" width="40" height="40" viewBox="0 0 40 40" fill="none">
<path d="M29.6833 7.45C29.55 7.45 29.4167 7.41667 29.3 7.35C26.1 5.7 23.3333 5 20.0167 5C16.7167 5 13.5833 5.78333 10.7333 7.35C10.3333 7.56667 9.83335 7.41667 9.60001 7.01667C9.49607 6.82174 9.47275 6.59381 9.53509 6.38188C9.59742 6.16995 9.74042 5.99094 9.93335 5.88333C13.0333 4.2 16.4333 3.33333 20.0167 3.33333C23.5667 3.33333 26.6667 4.11667 30.0667 5.86667C30.4833 6.08333 30.6333 6.58333 30.4167 6.98333C30.3508 7.12227 30.247 7.23978 30.1173 7.32234C29.9875 7.40489 29.8371 7.44914 29.6833 7.45ZM5.83335 16.2C5.67972 16.2014 5.52869 16.1603 5.39702 16.0811C5.26536 16.0019 5.15819 15.8878 5.08742 15.7515C5.01665 15.6151 4.98503 15.4618 4.99608 15.3086C5.00713 15.1553 5.06041 15.0081 5.15001 14.8833C6.80001 12.55 8.90001 10.7167 11.4 9.43333C16.6333 6.73333 23.3333 6.71667 28.5833 9.41667C31.0833 10.7 33.1833 12.5167 34.8333 14.8333C34.8973 14.9229 34.9429 15.0242 34.9674 15.1315C34.992 15.2388 34.9951 15.3499 34.9765 15.4583C34.9579 15.5668 34.918 15.6705 34.8591 15.7635C34.8002 15.8565 34.7235 15.9368 34.6333 16C34.25 16.2667 33.7333 16.1833 33.4667 15.8C32.0071 13.734 30.0684 12.0526 27.8167 10.9C23.0333 8.45 16.9167 8.45 12.15 10.9167C9.88335 12.0833 7.98335 13.75 6.48335 15.85C6.35001 16.0833 6.10001 16.2 5.83335 16.2ZM16.25 36.3167C16.1407 36.318 16.0324 36.2964 15.9319 36.2534C15.8314 36.2103 15.7411 36.1467 15.6667 36.0667C14.2167 34.6167 13.4333 33.6833 12.3167 31.6667C11.1667 29.6167 10.5667 27.1167 10.5667 24.4333C10.5667 19.4833 14.8 15.45 20 15.45C25.2 15.45 29.4333 19.4833 29.4333 24.4333C29.4333 24.9 29.0667 25.2667 28.6 25.2667C28.1333 25.2667 27.7667 24.9 27.7667 24.4333C27.7667 20.4 24.2833 17.1167 20 17.1167C15.7167 17.1167 12.2333 20.4 12.2333 24.4333C12.2333 26.8333 12.7667 29.05 13.7833 30.85C14.85 32.7667 15.5833 33.5833 16.8667 34.8833C17.1833 35.2167 17.1833 35.7333 16.8667 36.0667C16.6833 36.2333 16.4667 36.3167 16.25 36.3167ZM28.2 33.2333C26.2167 33.2333 24.4667 32.7333 23.0333 31.75C20.55 30.0667 19.0667 27.3333 19.0667 24.4333C19.0667 23.9667 19.4333 23.6 19.9 23.6C20.3667 23.6 20.7333 23.9667 20.7333 24.4333C20.7333 26.7833 21.9333 29 23.9667 30.3667C25.15 31.1667 26.5333 31.55 28.2 31.55C28.6 31.55 29.2667 31.5 29.9333 31.3833C30.3833 31.3 30.8167 31.6 30.9 32.0667C30.9833 32.5167 30.6833 32.95 30.2167 33.0333C29.2667 33.2167 28.4333 33.2333 28.2 33.2333ZM24.85 36.6667C24.7833 36.6667 24.7 36.65 24.6333 36.6333C21.9833 35.9 20.25 34.9167 18.4333 33.1333C17.2821 31.9966 16.3693 30.6417 15.7483 29.1478C15.1273 27.6539 14.8106 26.0511 14.8167 24.4333C14.8167 21.7333 17.1167 19.5333 19.95 19.5333C22.7833 19.5333 25.0833 21.7333 25.0833 24.4333C25.0833 26.2167 26.6333 27.6667 28.55 27.6667C30.4667 27.6667 32.0167 26.2167 32.0167 24.4333C32.0167 18.15 26.6 13.05 19.9333 13.05C15.2 13.05 10.8667 15.6833 8.91668 19.7667C8.26668 21.1167 7.93335 22.7 7.93335 24.4333C7.93335 25.7333 8.05001 27.7833 9.05001 30.45C9.21668 30.8833 9.00001 31.3667 8.56668 31.5167C8.13335 31.6833 7.65001 31.45 7.50001 31.0333C6.69691 28.9255 6.28462 26.689 6.28335 24.4333C6.28335 22.4333 6.66668 20.6167 7.41668 19.0333C9.63335 14.3833 14.55 11.3667 19.9333 11.3667C27.5167 11.3667 33.6833 17.2167 33.6833 24.4167C33.6833 27.1167 31.3833 29.3167 28.55 29.3167C25.7167 29.3167 23.4167 27.1167 23.4167 24.4167C23.4167 22.6333 21.8667 21.1833 19.95 21.1833C18.0333 21.1833 16.4833 22.6333 16.4833 24.4167C16.4833 27.2667 17.5833 29.9333 19.6 31.9333C21.1833 33.5 22.7 34.3667 25.05 35.0167C25.5 35.1333 25.75 35.6 25.6333 36.0333C25.55 36.4167 25.2 36.6667 24.85 36.6667Z" fill="#58BD9C"/>
</svg>