<svg width="86" height="20" viewBox="0 0 86 20" fill="none" xmlns="http://www.w3.org/2000/svg">
<path d="M24.4025 16.0019V4.24715H26.2015V9.13243H26.4796C27.2107 8.3237 28.6659 6.69567 30.8474 4.24715H33.2027C32.319 5.22044 30.5588 7.1494 27.9195 10.034C28.8349 11.0285 30.662 13.0174 33.3987 16.0019H30.9613C30.2196 15.1709 28.7257 13.5099 26.4796 11.0179H26.2015V16.0019H24.4025Z" fill="#0B1D2E"/>
<path d="M33.8887 16.0019C34.445 14.0459 35.5575 10.1269 37.2251 4.24715H40.4147C40.9709 6.20314 42.0834 10.1222 43.751 16.0019H41.8863C41.7549 15.5435 41.499 14.6196 41.1176 13.2313H36.5221C36.4024 13.6898 36.1454 14.6137 35.7535 16.0019H33.8887ZM36.9798 11.5586H40.66C40.376 10.5207 39.8092 8.46006 38.9595 5.37796H38.6814C38.3974 6.40532 37.8306 8.46593 36.981 11.5586H36.9798Z" fill="#0B1D2E"/>
<path d="M44.8982 16.0019V4.24715H49.5923C51.1519 4.24715 52.3454 4.64681 53.1739 5.44378C54.0129 6.24193 54.4331 7.43857 54.4331 9.03369V11.2307C54.4331 12.8375 54.0129 14.0342 53.1739 14.8206C52.3454 15.607 51.1507 16.0007 49.5923 16.0007H44.8982V16.0019ZM46.7301 14.3621H49.6087C50.6226 14.3621 51.3749 14.1059 51.8666 13.5922C52.3571 13.0679 52.6024 12.2968 52.6024 11.28V8.96786C52.6024 7.9405 52.3571 7.17526 51.8666 6.67216C51.376 6.17023 50.6238 5.91868 49.6087 5.91868H46.7301V14.3621Z" fill="#0B1D2E"/>
<path d="M56.4772 16.0019V4.24715H63.8539V5.90339H58.2762V9.26408H63.3963V10.9203H58.2762V14.3633H63.9361V16.0031H56.4772V16.0019Z" fill="#0B1D2E"/>
<path d="M65.8351 16.0019V4.24715H69.3193C69.8427 6.00684 70.9001 9.52034 72.4925 14.7888H72.7707V4.24715H74.5532V16.0019H71.0691C70.5457 14.2422 69.4883 10.7229 67.8958 5.44378H67.6177V16.0019H65.8351Z" fill="#0B1D2E"/>
<path d="M76.1376 16.0019C76.6938 14.0459 77.8063 10.1269 79.4739 4.24715H82.6635C83.2198 6.20314 84.3323 10.1222 85.9999 16.0019H84.1351C84.0037 15.5435 83.7479 14.6196 83.3665 13.2313H78.771C78.6513 13.6898 78.3943 14.6137 78.0023 16.0019H76.1376ZM79.2286 11.5586H82.9088C82.6248 10.5207 82.058 8.46006 81.2084 5.37796H80.9302C80.6463 6.40532 80.0794 8.46593 79.2298 11.5586H79.2286Z" fill="#0B1D2E"/>
<path d="M20.916 19.9989H13.7646L13.7599 19.9954L13.7036 19.9519L4.84113 13.0342L8.46848 10.1249L20.8562 19.9519L20.916 19.9989Z" fill="#0B1D2E"/>
<path d="M20.916 0.250977H13.7646L13.7599 0.254503L13.7036 0.297996L4.84113 7.21568L8.46848 10.125L20.8562 0.297996L20.916 0.250977Z" fill="#0B1D2E"/>
<path d="M4.84238 10.5634V13.0272V13.0355L4.84356 19.952V19.999L4.83886 19.9955L4.78371 19.952L0.471013 16.5431L0.460451 16.5349L0.398254 16.4867V3.7633L0.460451 3.71511L0.471013 3.70688L4.78371 0.297996L4.83886 0.254503L4.84356 0.250977V0.297996L4.84238 7.2145V7.22273V10.125V10.5634Z" fill="#0B1D2E"/>
<path d="M0.397855 10.1249H0.395508V10.5633H0.397855V10.1249Z" fill="#0B1D2E"/>
<path d="M4.8423 10.1249H4.84113V10.5633H4.8423V10.1249Z" fill="#0B1D2E"/>
</svg>
