<svg xmlns="http://www.w3.org/2000/svg" width="90" height="24" viewBox="25 0 90 24" fill="white">
<path d="M29.7149 19.1429V4.85714H31.9006V10.8H32.2435C33.1292 9.81429 34.9006 7.84286 37.5578 4.85714H40.4292C39.3578 6.04286 37.2149 8.38571 34.0006 11.8857C35.1149 13.1 37.3435 15.5143 40.672 19.1429H37.7006C36.8006 18.1286 34.9863 16.1143 32.2435 13.0857H31.9006V19.1429H29.7149Z" fill="#F0EAE6"/>
<path d="M41.2578 19.1429C41.9292 16.7714 43.2863 12 45.3149 4.85714H49.2006C49.872 7.22857 51.2292 12 53.2578 19.1429H50.9863C50.8292 18.5857 50.5149 17.4571 50.0435 15.7714H44.4435C44.3006 16.3286 43.9863 17.4571 43.5006 19.1429H41.2578ZM45.0292 13.7429H49.5149C49.172 12.4857 48.4863 9.97143 47.4435 6.22857H47.1006C46.7435 7.48571 46.0578 9.98571 45.0292 13.7429Z" fill="#F0EAE6"/>
<path d="M54.6578 19.1429V4.85714H60.372C62.272 4.85714 63.7292 5.34286 64.7292 6.31429C65.7578 7.28571 66.2578 8.74286 66.2578 10.6714V13.3429C66.2578 15.3 65.7435 16.7429 64.7292 17.7C63.7149 18.6571 62.272 19.1286 60.372 19.1286C59.1006 19.1429 57.2006 19.1429 54.6578 19.1429ZM56.8863 17.1571H60.3863C61.6149 17.1571 62.5435 16.8429 63.1292 16.2143C63.7292 15.5714 64.0292 14.6429 64.0292 13.4V10.5857C64.0292 9.34286 63.7292 8.41429 63.1292 7.8C62.5292 7.18571 61.6149 6.88571 60.3863 6.88571H56.8863V17.1571Z" fill="#F0EAE6"/>
<path d="M68.7578 19.1429V4.85714H77.7435V6.87143H70.9578V10.9571H77.1863V12.9714H70.9578V17.1571H77.8435V19.1429C76.3292 19.1429 73.3006 19.1429 68.7578 19.1429Z" fill="#F0EAE6"/>
<path d="M80.1435 19.1429V4.85714H84.3863C85.0292 7 86.3149 11.2714 88.2435 17.6714H88.5863V4.85714H90.7578V19.1429H86.5149C85.872 17 84.5863 12.7286 82.6578 6.31429H82.3149V19.1429H80.1435Z" fill="#F0EAE6"/>
<path d="M92.6863 19.1429C93.3578 16.7714 94.7149 12 96.7435 4.85714H100.629C101.301 7.22857 102.658 12 104.686 19.1429H102.415C102.258 18.5857 101.943 17.4571 101.472 15.7714H95.872C95.7292 16.3286 95.4149 17.4571 94.9292 19.1429H92.6863ZM96.4578 13.7429H100.943C100.601 12.4857 99.9149 9.97143 98.872 6.22857H98.5292C98.1721 7.48571 97.4863 9.98571 96.4578 13.7429Z" fill="#F0EAE6"/>
</svg>