<svg width="344" height="223" viewBox="0 0 344 223" fill="none"
  xmlns="http://www.w3.org/2000/svg">
  <g filter="url(#filter0_b_148_465)">
    <path d="M0 12C0 5.37259 5.37258 0 12 0H332C338.627 0 344 5.37258 344 12V211C344 217.627 338.627 223 332 223H12C5.37259 223 0 217.627 0 211V12Z" fill="url(#paint0_linear_148_465)"/>
    <path d="M0 12C0 5.37259 5.37258 0 12 0H332C338.627 0 344 5.37258 344 12V211C344 217.627 338.627 223 332 223H12C5.37259 223 0 217.627 0 211V12Z" fill="url(#paint1_linear_148_465)"/>
    <path d="M0 12C0 5.37259 5.37258 0 12 0H332C338.627 0 344 5.37258 344 12V211C344 217.627 338.627 223 332 223H12C5.37259 223 0 217.627 0 211V12Z" fill="url(#paint2_linear_148_465)"/>
    <path d="M0 12C0 5.37259 5.37258 0 12 0H332C338.627 0 344 5.37258 344 12V211C344 217.627 338.627 223 332 223H12C5.37259 223 0 217.627 0 211V12Z" fill="url(#paint3_linear_148_465)"/>
    <path d="M0 12C0 5.37259 5.37258 0 12 0H332C338.627 0 344 5.37258 344 12V211C344 217.627 338.627 223 332 223H12C5.37259 223 0 217.627 0 211V12Z" fill="url(#paint4_linear_148_465)" fill-opacity="0.2"/>
  </g>
  <g opacity="0.2">
    <g clip-path="url(#clip0_148_465)">
      <path d="M415.165 264.191H331.804L331.75 264.15L331.093 263.643L227.788 183.007L270.07 149.095L414.467 263.643L415.165 264.191Z" fill="#D0D0D0"/>
      <path d="M415.165 34H331.804L331.75 34.0411L331.093 34.5481L227.788 115.184L270.07 149.096L414.467 34.5481L415.165 34Z" fill="url(#paint5_linear_148_465)"/>
      <path d="M227.803 154.207V182.926V183.022L227.817 263.644V264.192L227.762 264.151L227.119 263.644L176.848 223.909L176.725 223.813L176 223.251V74.9413L176.725 74.3796L176.848 74.2837L227.119 34.5481L227.762 34.0411L227.817 34V34.5481L227.803 115.17V115.266V149.096V154.207Z" fill="#D0D0D0"/>
    </g>
  </g>
  <defs>
    <filter id="filter0_b_148_465" x="-29.9" y="-29.9" width="403.8" height="282.8" filterUnits="userSpaceOnUse" color-interpolation-filters="sRGB">
      <feFlood flood-opacity="0" result="BackgroundImageFix"/>
      <feGaussianBlur in="BackgroundImageFix" stdDeviation="14.95"/>
      <feComposite in2="SourceAlpha" operator="in" result="effect1_backgroundBlur_148_465"/>
      <feBlend mode="normal" in="SourceGraphic" in2="effect1_backgroundBlur_148_465" result="shape"/>
    </filter>
    <linearGradient id="paint0_linear_148_465" x1="81" y1="24.5" x2="231.5" y2="211.5" gradientUnits="userSpaceOnUse">
      <stop stop-color="white" stop-opacity="0"/>
      <stop offset="0.680508" stop-color="white"/>
      <stop offset="0.682343" stop-color="#F0F0F0"/>
      <stop offset="0.894411" stop-color="white" stop-opacity="0.7"/>
    </linearGradient>
    <linearGradient id="paint1_linear_148_465" x1="1.24811e-05" y1="74" x2="194.73" y2="334.558" gradientUnits="userSpaceOnUse">
      <stop offset="0.4" stop-color="white" stop-opacity="0"/>
      <stop offset="0.525" stop-color="#787878" stop-opacity="0.13"/>
      <stop offset="0.665" stop-color="white" stop-opacity="0.23"/>
      <stop offset="1" stop-color="white"/>
    </linearGradient>
    <linearGradient id="paint2_linear_148_465" x1="0" y1="0" x2="344" y2="223" gradientUnits="userSpaceOnUse">
      <stop stop-color="white"/>
      <stop offset="0.55" stop-color="white" stop-opacity="0"/>
    </linearGradient>
    <linearGradient id="paint3_linear_148_465" x1="162" y1="118" x2="3.5" y2="189" gradientUnits="userSpaceOnUse">
      <stop stop-color="white" stop-opacity="0.5"/>
      <stop offset="1" stop-color="white" stop-opacity="0"/>
    </linearGradient>
    <linearGradient id="paint4_linear_148_465" x1="141" y1="254.5" x2="344" y2="-3.34085e-05" gradientUnits="userSpaceOnUse">
      <stop stop-color="white" stop-opacity="0"/>
      <stop offset="0.500368" stop-color="white" stop-opacity="0"/>
      <stop offset="0.503434" stop-color="white"/>
    </linearGradient>
    <linearGradient id="paint5_linear_148_465" x1="257" y1="128.5" x2="342.5" y2="51" gradientUnits="userSpaceOnUse">
      <stop stop-color="#D0D0D0"/>
      <stop offset="1" stop-color="#D0D0D0" stop-opacity="0"/>
    </linearGradient>
    <clipPath id="clip0_148_465">
      <path d="M176 34H344V211C344 217.627 338.627 223 332 223H176V34Z" fill="white"/>
    </clipPath>
  </defs>
</svg>