<svg width="16" height="16" viewBox="0 0 16 16" fill="none" xmlns="http://www.w3.org/2000/svg">
<rect width="16" height="16" rx="2" fill="white"/>
<path d="M7.99984 1.07153L6.49994 1.93789L6.49951 3.66973L7.99984 4.53608L9.49973 3.66973V1.93789L7.99984 1.07153Z" fill="#4A9079"/>
<path d="M8 14.9285L6.50011 14.0625V12.3303L5.00022 13.1962L3.50032 12.3303V10.598L6.53776 8.84407L6.50011 7.13343L3.49989 8.84407L2 7.99978V6.26751L6.50011 3.66931L8 4.53523L9.49989 3.66931L14 6.26751V7.99978C14 7.99978 12.4715 8.88042 12.4858 8.87306C12.5001 8.86571 9.49989 7.15637 9.49989 7.15637L9.53754 8.84407L12.5001 10.598V12.3303L11.0002 13.1862L9.50032 12.3303V14.0625L8.00043 14.9285H8Z" fill="#0B1D2E"/>
</svg>
