<svg id="eQGavZXnuB91" xmlns="http://www.w3.org/2000/svg" xmlns:xlink="http://www.w3.org/1999/xlink" viewBox="0 0 300 300" shape-rendering="geometricPrecision" text-rendering="geometricPrecision" project-id="67a11c1555814575a3062161879150bf" export-id="d559d3e7614247cdadaefd8930c8e4df" cached="false" style="background-color:transparent">
<style><![CDATA[
#eQGavZXnuB96_to {animation: eQGavZXnuB96_to__to 2000ms linear infinite normal forwards}@keyframes eQGavZXnuB96_to__to { 0% {transform: translate(150.999px,106.934px)} 48.35% {transform: translate(150.999px,106.934px);animation-timing-function: cubic-bezier(0.21,0,0.15,1)} 85% {transform: translate(150.999px,85.559px)} 100% {transform: translate(150.999px,85.559px)}} #eQGavZXnuB96 {animation: eQGavZXnuB96_c_o 2000ms linear infinite normal forwards}@keyframes eQGavZXnuB96_c_o { 0% {opacity: 0} 48.35% {opacity: 0;animation-timing-function: cubic-bezier(0.333,0,0.667,1)} 61.65% {opacity: 1} 100% {opacity: 1}} #eQGavZXnuB98_to {animation: eQGavZXnuB98_to__to 2000ms linear infinite normal forwards}@keyframes eQGavZXnuB98_to__to { 0% {transform: translate(115.176px,126.968px)} 46.65% {transform: translate(115.176px,126.968px);animation-timing-function: cubic-bezier(0.21,0,0.15,1)} 83.35% {transform: translate(96.926px,137.593px)} 100% {transform: translate(96.926px,137.593px)}} #eQGavZXnuB910_to {animation: eQGavZXnuB910_to__to 2000ms linear infinite normal forwards}@keyframes eQGavZXnuB910_to__to { 0% {transform: translate(133.701px,178.002px)} 56.65% {transform: translate(133.701px,178.002px);animation-timing-function: cubic-bezier(0.21,0,0.15,1)} 96.65% {transform: translate(114.951px,188.377px)} 100% {transform: translate(114.951px,188.377px)}} #eQGavZXnuB912_to {animation: eQGavZXnuB912_to__to 2000ms linear infinite normal forwards}@keyframes eQGavZXnuB912_to__to { 0% {transform: translate(186.824px,126.968px)} 46.65% {transform: translate(186.824px,126.968px);animation-timing-function: cubic-bezier(0.21,0,0.15,1)} 83.35% {transform: translate(205.074px,137.593px)} 100% {transform: translate(205.074px,137.593px)}} #eQGavZXnuB914_to {animation: eQGavZXnuB914_to__to 2000ms linear infinite normal forwards}@keyframes eQGavZXnuB914_to__to { 0% {transform: translate(168.175px,178.127px)} 56.65% {transform: translate(168.175px,178.127px);animation-timing-function: cubic-bezier(0.21,0,0.15,1)} 96.65% {transform: translate(187.05px,188.377px)} 100% {transform: translate(187.05px,188.377px)}} #eQGavZXnuB916_to {animation: eQGavZXnuB916_to__to 2000ms linear infinite normal forwards}@keyframes eQGavZXnuB916_to__to { 0% {transform: translate(150.999px,85.559px);animation-timing-function: cubic-bezier(0.85,0,0.79,1)} 53.35% {transform: translate(150.999px,30.586px)} 100% {transform: translate(150.999px,30.586px)}} #eQGavZXnuB916 {animation: eQGavZXnuB916_c_o 2000ms linear infinite normal forwards}@keyframes eQGavZXnuB916_c_o { 0% {opacity: 1} 20% {opacity: 1;animation-timing-function: cubic-bezier(0.85,0,0.79,1)} 53.35% {opacity: 0} 100% {opacity: 0}} #eQGavZXnuB918_to {animation: eQGavZXnuB918_to__to 2000ms linear infinite normal forwards}@keyframes eQGavZXnuB918_to__to { 0% {transform: translate(96.926px,137.593px)} 11.65% {transform: translate(96.926px,137.593px);animation-timing-function: cubic-bezier(0.85,0,0.79,1)} 49.7% {transform: translate(42.476px,169.53px)} 100% {transform: translate(42.476px,169.53px)}} #eQGavZXnuB918 {animation: eQGavZXnuB918_c_o 2000ms linear infinite normal forwards}@keyframes eQGavZXnuB918_c_o { 0% {opacity: 1} 30.7% {opacity: 1;animation-timing-function: cubic-bezier(0.85,0,0.79,1)} 49.7% {opacity: 0} 100% {opacity: 0}} #eQGavZXnuB920_to {animation: eQGavZXnuB920_to__to 2000ms linear infinite normal forwards}@keyframes eQGavZXnuB920_to__to { 0% {transform: translate(114.951px,188.377px)} 30.7% {transform: translate(114.951px,188.377px);animation-timing-function: cubic-bezier(0.85,0,0.79,1)} 71.65% {transform: translate(78.451px,210.502px)} 100% {transform: translate(78.451px,210.502px)}} #eQGavZXnuB920 {animation: eQGavZXnuB920_c_o 2000ms linear infinite normal forwards}@keyframes eQGavZXnuB920_c_o { 0% {opacity: 1} 49.7% {opacity: 1;animation-timing-function: cubic-bezier(0.85,0,0.79,1)} 71.65% {opacity: 0} 100% {opacity: 0}} #eQGavZXnuB922_to {animation: eQGavZXnuB922_to__to 2000ms linear infinite normal forwards}@keyframes eQGavZXnuB922_to__to { 0% {transform: translate(205.074px,137.593px)} 11.65% {transform: translate(205.074px,137.593px);animation-timing-function: cubic-bezier(0.85,0,0.79,1)} 49.7% {transform: translate(259.767px,169.507px)} 100% {transform: translate(259.767px,169.507px)}} #eQGavZXnuB922 {animation: eQGavZXnuB922_c_o 2000ms linear infinite normal forwards}@keyframes eQGavZXnuB922_c_o { 0% {opacity: 1} 30.7% {opacity: 1;animation-timing-function: cubic-bezier(0.85,0,0.79,1)} 49.7% {opacity: 0} 100% {opacity: 0}} #eQGavZXnuB924_to {animation: eQGavZXnuB924_to__to 2000ms linear infinite normal forwards}@keyframes eQGavZXnuB924_to__to { 0% {transform: translate(187.05px,188.377px)} 30.7% {transform: translate(187.05px,188.377px);animation-timing-function: cubic-bezier(0.85,0,0.79,1)} 70.2% {transform: translate(222.8px,210.752px)} 100% {transform: translate(222.8px,210.752px)}} #eQGavZXnuB924 {animation: eQGavZXnuB924_c_o 2000ms linear infinite normal forwards}@keyframes eQGavZXnuB924_c_o { 0% {opacity: 1} 49.7% {opacity: 1;animation-timing-function: cubic-bezier(0.85,0,0.79,1)} 70.2% {opacity: 0} 100% {opacity: 0}}
]]></style>
<g transform="matrix(.52 0 0 0.52 151.088 163.43)"><path d="M0,130.085c0,0-34.664-20.013-34.664-20.013s0-40.026,0-40.026.433.301.433.301-34.664-20.013-34.664-20.013s0-40.026,0-40.026s35.097-20.815,35.097-20.815-.866-39.526-.866-39.526-34.711,19.334-34.711,19.334-34.664-19.513-34.664-19.513s0-40.026,0-40.026s69.375-39.847,69.375-39.847s34.664,20.013,34.664,20.013s34.664-20.013,34.664-20.013s68.894,40.328,68.894,40.328s0,40.026,0,40.026-35.324,20.347-34.994,20.18-33.9-19.956-33.9-19.956.866,39,.866,39s33.845,20.815,33.845,20.815s0,40.026,0,40.026-34.663,19.781-34.663,19.781-.048-.069-.048-.069s0,40.026,0,40.026-34.664,20.013-34.664,20.013Z" fill="#0b1d2e" stroke-width="0"/></g><g transform="matrix(.52 0 0 0.52 150.999 106.373)"><path d="M-34.664,20.013c0,0,0-40.026,0-40.026s34.664-20.013,34.664-20.013s34.664,20.013,34.664,20.013s0,40.026,0,40.026-34.664,20.013-34.664,20.013-34.664-20.013-34.664-20.013Z" fill="#0b1d2e" stroke-width="0"/></g><g id="eQGavZXnuB96_to" transform="translate(150.999,106.934)"><g id="eQGavZXnuB96" transform="scale(0.52,0.52) translate(0,0)" opacity="0"><path d="M-34.664,20.013c0,0,0-40.026,0-40.026s34.664-20.013,34.664-20.013s34.664,20.013,34.664,20.013s0,40.026,0,40.026-34.664,20.013-34.664,20.013-34.664-20.013-34.664-20.013Z" fill="#4a9079" stroke-width="0"/></g></g><g id="eQGavZXnuB98_to" transform="translate(115.176,126.968)"><g transform="scale(0.52,0.52) translate(0,0)"><path d="M-34.664,20.013c0,0,0-40.026,0-40.026s34.664-20.013,34.664-20.013s34.664,20.013,34.664,20.013s0,40.026,0,40.026-34.664,20.013-34.664,20.013-34.664-20.013-34.664-20.013Z" fill="#0b1d2e" stroke-width="0"/></g></g><g id="eQGavZXnuB910_to" transform="translate(133.701,178.002)"><g transform="scale(0.52,0.52) translate(0,0)"><path d="M-34.664,20.013c0,0,0-40.026,0-40.026s34.664-20.013,34.664-20.013s34.664,20.013,34.664,20.013s0,40.026,0,40.026-34.664,20.013-34.664,20.013-34.664-20.013-34.664-20.013Z" fill="#0b1d2e" stroke-width="0"/></g></g><g id="eQGavZXnuB912_to" transform="translate(186.824,126.968)"><g transform="scale(0.52,0.52) translate(0,0)"><path d="M-34.664,20.013c0,0,0-40.026,0-40.026s34.664-20.013,34.664-20.013s34.664,20.013,34.664,20.013s0,40.026,0,40.026-34.664,20.013-34.664,20.013-34.664-20.013-34.664-20.013Z" fill="#0b1d2e" stroke-width="0"/></g></g><g id="eQGavZXnuB914_to" transform="translate(168.175,178.127)"><g transform="scale(0.52,0.52) translate(0,0)"><path d="M-34.664,20.013c0,0,0-40.026,0-40.026s34.664-20.013,34.664-20.013s34.664,20.013,34.664,20.013s0,40.026,0,40.026-34.664,20.013-34.664,20.013-34.664-20.013-34.664-20.013Z" fill="#0b1d2e" stroke-width="0"/></g></g><g id="eQGavZXnuB916_to" transform="translate(150.999,85.559)"><g id="eQGavZXnuB916" transform="scale(0.52,0.52) translate(0,0)"><path d="M-34.664,20.013c0,0,0-40.026,0-40.026s34.664-20.013,34.664-20.013s34.664,20.013,34.664,20.013s0,40.026,0,40.026-34.664,20.013-34.664,20.013-34.664-20.013-34.664-20.013Z" fill="#4a9079" stroke-width="0"/></g></g><g id="eQGavZXnuB918_to" transform="translate(96.926,137.593)"><g id="eQGavZXnuB918" transform="scale(0.52,0.52) translate(0,0)"><path d="M-34.664,20.013c0,0,0-40.026,0-40.026s34.664-20.013,34.664-20.013s34.664,20.013,34.664,20.013s0,40.026,0,40.026-34.664,20.013-34.664,20.013-34.664-20.013-34.664-20.013Z" fill="#0b1d2e" stroke-width="0"/></g></g><g id="eQGavZXnuB920_to" transform="translate(114.951,188.377)"><g id="eQGavZXnuB920" transform="scale(0.52,0.52) translate(0,0)"><path d="M-34.664,20.013c0,0,0-40.026,0-40.026s34.664-20.013,34.664-20.013s34.664,20.013,34.664,20.013s0,40.026,0,40.026-34.664,20.013-34.664,20.013-34.664-20.013-34.664-20.013Z" fill="#0b1d2e" stroke-width="0"/></g></g><g id="eQGavZXnuB922_to" transform="translate(205.074,137.593)"><g id="eQGavZXnuB922" transform="scale(0.52,0.52) translate(0,0)"><path d="M-34.664,20.013c0,0,0-40.026,0-40.026s34.664-20.013,34.664-20.013s34.664,20.013,34.664,20.013s0,40.026,0,40.026-34.664,20.013-34.664,20.013-34.664-20.013-34.664-20.013Z" fill="#0b1d2e" stroke-width="0"/></g></g><g id="eQGavZXnuB924_to" transform="translate(187.05,188.377)"><g id="eQGavZXnuB924" transform="scale(0.52,0.52) translate(0,0)"><path d="M-34.664,20.013c0,0,0-40.026,0-40.026s34.664-20.013,34.664-20.013s34.664,20.013,34.664,20.013s0,40.026,0,40.026-34.664,20.013-34.664,20.013-34.664-20.013-34.664-20.013Z" fill="#0b1d2e" stroke-width="0"/></g></g></svg>
