<svg width="58" height="37" viewBox="0 0 58 37" fill="none" xmlns="http://www.w3.org/2000/svg">
<g clip-path="url(#clip0_121_978)">
<path d="M58 37H45.0923L28.9871 24.31L35.5334 19.0079L58 37Z" fill="#4A9079"/>
<path d="M58 1.01584H45.0923L28.9871 13.7059L35.5334 19.0079L58 1.01584Z" fill="#4A9079"/>
<path fill-rule="evenodd" clip-rule="evenodd" d="M23.0215 11.0398H28.9851C28.9851 4.9427 24.0893 0 18.0501 0C12.0109 0 7.11508 4.9427 7.11707 11.0398V14.2448C6.15483 14.4818 5.22385 14.8378 4.35094 15.32C4.19584 15.4063 4.04869 15.4926 3.91346 15.5789C2.83766 16.2696 1.91696 17.2633 1.14938 18.5582C0.38379 19.8551 0 21.5495 0 23.6394V25.3961C0 27.8233 0.560771 29.9031 1.67834 31.6377C2.79789 33.3743 4.341 34.7013 6.30768 35.6208C8.27435 36.5403 10.5632 37 13.1721 37H28.9871V13.7059C28.9871 13.7059 20.4614 13.38 13.0827 13.6814V11.0398C13.0827 8.26929 15.3079 6.02279 18.0521 6.02279C20.7963 6.02279 23.0215 8.26929 23.0215 11.0398ZM12.0367 18.6847H23.0234V18.6867V31.0675H12.0367C10.2569 31.0675 8.81723 30.6279 7.71955 29.7506C6.62187 28.8712 6.07303 27.6165 6.07303 25.9863V23.7659C6.07303 22.1337 6.61192 20.879 7.68773 20.0017C8.76552 19.1244 10.2152 18.6847 12.0367 18.6847Z" fill="white" fill-opacity="0.8"/>
</g>
<defs>
<clipPath id="clip0_121_978">
<rect width="58" height="37" fill="white"/>
</clipPath>
</defs>
</svg>
