<svg width="191" height="101" viewBox="0 0 191 101" fill="none" xmlns="http://www.w3.org/2000/svg">
<path d="M103.187 37.4976L109.657 40.7015L104.59 44.384L103.187 37.4976Z" fill="#4A9079"/>
<path d="M119.572 33.4984L101.958 31.4636L101.075 27.1273L117.502 27.1263L119.572 33.4984Z" fill="#4A9079"/>
<path d="M80.5361 40.7004L87.0162 37.4976L85.6312 44.4033L80.5361 40.7004Z" fill="#4A9079"/>
<path d="M88.227 31.4636L70.6221 33.4984L72.6914 27.1273H89.0967L88.227 31.4636Z" fill="#4A9079"/>
<path d="M114.157 16.8334L101.075 27.1273L95.086 25.0681L89.0968 27.1273L76.0328 16.8446L77.9892 10.8238L88.2179 17.697L92.0308 24.733V4.72568H98.1411V24.1688L101.954 17.697L112.202 10.8167L114.157 16.8334Z" fill="#4A9079"/>
<path d="M3.51892 48.528V41.0407H4.66484V44.1526H4.84163C5.30721 43.637 6.23468 42.6003 7.62403 41.0407H9.12446C8.56169 41.6608 7.44077 42.8891 5.75892 44.7265C6.34206 45.3596 7.50556 46.6268 9.24942 48.528H7.69716C7.2251 47.9986 6.27263 46.9406 4.84255 45.3531H4.66576V48.528H3.51985H3.51892Z" fill="#F0EAE6"/>
<path d="M9.56128 48.528C9.91579 47.2821 10.6239 44.7857 11.6865 41.0407H13.7182C14.0727 42.2866 14.7808 44.783 15.8434 48.528H14.6559C14.5726 48.2355 14.4087 47.6477 14.1662 46.7629H11.2385C11.1626 47.0544 10.9988 47.6431 10.7488 48.528H9.56128ZM11.531 45.6984H13.8756C13.6951 45.0375 13.3332 43.725 12.7926 41.7617H12.6158C12.4353 42.4161 12.0743 43.7287 11.5328 45.6984H11.531Z" fill="#F0EAE6"/>
<path d="M16.5747 48.528V41.0407H19.5645C20.5576 41.0407 21.3185 41.2952 21.8461 41.8025C22.3802 42.3106 22.6486 43.0733 22.6486 44.0887V45.4883C22.6486 46.512 22.3811 47.2738 21.8461 47.7746C21.3185 48.2753 20.5576 48.5262 19.5645 48.5262H16.5747V48.528ZM17.741 47.4839H19.5746C20.2207 47.4839 20.6993 47.321 21.013 46.9933C21.3259 46.6592 21.4814 46.1686 21.4814 45.5207V44.048C21.4814 43.3936 21.325 42.9058 21.013 42.5855C20.7002 42.2662 20.2216 42.1051 19.5746 42.1051H17.741V47.4839Z" fill="#F0EAE6"/>
<path d="M23.9501 48.528V41.0407H28.6494V42.0959H25.0969V44.2368H28.3588V45.292H25.0969V47.4848H28.7022V48.5299H23.951L23.9501 48.528Z" fill="#F0EAE6"/>
<path d="M29.9109 48.528V41.0407H32.1306C32.4638 42.1616 33.1377 44.3997 34.1521 47.7551H34.3289V41.0407H35.4647V48.528H33.245C32.9118 47.4071 32.238 45.1652 31.2235 41.8025H31.0467V48.528H29.9109Z" fill="#F0EAE6"/>
<path d="M36.4736 48.528C36.8281 47.2821 37.5362 44.7857 38.5988 41.0407H40.6306C40.9851 42.2866 41.6932 44.783 42.7558 48.528H41.5682C41.4849 48.2355 41.3211 47.6477 41.0786 46.7629H38.1518C38.0759 47.0544 37.912 47.6431 37.6621 48.528H36.4746H36.4736ZM38.4424 45.6984H40.787C40.6065 45.0375 40.2455 43.725 39.704 41.7617H39.5272C39.3468 42.4161 38.9858 43.7287 38.4443 45.6984H38.4424Z" fill="#F0EAE6"/>
<path d="M13.9236 88.3575C11.5294 88.3575 9.41607 87.9289 7.58352 87.0717C5.75097 86.2146 4.31744 84.988 3.28293 83.3919C2.24843 81.7958 1.73118 79.8745 1.73118 77.6282V76.3868H7.49485V77.6282C7.49485 79.4903 8.07121 80.8943 9.22395 81.8401C10.3767 82.7564 11.9432 83.2145 13.9236 83.2145C15.9335 83.2145 17.4261 82.8155 18.4015 82.0175C19.4064 81.2194 19.9089 80.1997 19.9089 78.9583C19.9089 78.1011 19.6577 77.4065 19.1552 76.8745C18.6823 76.3425 17.9729 75.9139 17.0271 75.5887C16.1108 75.2341 14.9876 74.9089 13.6575 74.6134L12.6378 74.3917C10.5097 73.9188 8.67714 73.3276 7.14016 72.6182C5.63274 71.8793 4.46523 70.9187 3.63762 69.7364C2.83957 68.5541 2.44055 67.0171 2.44055 65.1255C2.44055 63.2338 2.88391 61.6229 3.77063 60.2928C4.68691 58.9332 5.95787 57.8987 7.58352 57.1893C9.23873 56.4504 11.1747 56.0809 13.3915 56.0809C15.6083 56.0809 17.5739 56.4652 19.2882 57.2337C21.0321 57.9726 22.3917 59.0958 23.3671 60.6032C24.3721 62.0811 24.8745 63.9432 24.8745 66.1895V67.5196H19.1109V66.1895C19.1109 65.0072 18.8744 64.0614 18.4015 63.352C17.9581 62.6131 17.3079 62.0811 16.4507 61.7559C15.5935 61.4012 14.5738 61.2239 13.3915 61.2239C11.6181 61.2239 10.3028 61.5638 9.44563 62.2436C8.61802 62.8939 8.20422 63.7954 8.20422 64.9481C8.20422 65.7166 8.39634 66.3669 8.78059 66.8989C9.19439 67.4309 9.80032 67.8743 10.5984 68.229C11.3964 68.5837 12.4161 68.894 13.6575 69.16L14.6773 69.3817C16.8941 69.8546 18.8153 70.4606 20.4409 71.1995C22.0961 71.9384 23.3819 72.9138 24.2982 74.1257C25.2144 75.3375 25.6726 76.8893 25.6726 78.7809C25.6726 80.6726 25.1849 82.3426 24.2095 83.7909C23.2637 85.2096 21.904 86.3328 20.1306 87.1604C18.3867 87.9585 16.3177 88.3575 13.9236 88.3575ZM30.2146 96.604V65.7462H35.7122V68.4063H36.5103C37.0128 67.5492 37.796 66.7954 38.8601 66.1452C39.9242 65.4654 41.4464 65.1255 43.4267 65.1255C45.2001 65.1255 46.8406 65.5688 48.348 66.4555C49.8554 67.3127 51.0672 68.5837 51.9835 70.2684C52.8998 71.9532 53.3579 73.9926 53.3579 76.3868V77.0962C53.3579 79.4903 52.8998 81.5298 51.9835 83.2145C51.0672 84.8993 49.8554 86.185 48.348 87.0717C46.8406 87.9289 45.2001 88.3575 43.4267 88.3575C42.0966 88.3575 40.9734 88.1949 40.0572 87.8698C39.1704 87.5742 38.4463 87.19 37.8847 86.7171C37.3527 86.2146 36.9241 85.7121 36.599 85.2096H35.8009V96.604H30.2146ZM41.7419 83.4805C43.4858 83.4805 44.9193 82.9337 46.0425 81.8401C47.1952 80.7169 47.7716 79.0913 47.7716 76.9632V76.5198C47.7716 74.3917 47.1952 72.7808 46.0425 71.6872C44.8898 70.564 43.4562 70.0024 41.7419 70.0024C40.0276 70.0024 38.5941 70.564 37.4413 71.6872C36.2886 72.7808 35.7122 74.3917 35.7122 76.5198V76.9632C35.7122 79.0913 36.2886 80.7169 37.4413 81.8401C38.5941 82.9337 40.0276 83.4805 41.7419 83.4805ZM58.4874 87.7368V65.7462H64.0737V87.7368H58.4874ZM61.2806 63.1747C60.2756 63.1747 59.4185 62.8496 58.7091 62.1993C58.0293 61.549 57.6893 60.6919 57.6893 59.6278C57.6893 58.5637 58.0293 57.7066 58.7091 57.0563C59.4185 56.4061 60.2756 56.0809 61.2806 56.0809C62.3151 56.0809 63.1722 56.4061 63.852 57.0563C64.5319 57.7066 64.8718 58.5637 64.8718 59.6278C64.8718 60.6919 64.5319 61.549 63.852 62.1993C63.1722 62.8496 62.3151 63.1747 61.2806 63.1747ZM70.2641 87.7368V65.7462H75.7618V68.229H76.5598C76.885 67.3423 77.417 66.692 78.1559 66.2782C78.9244 65.8644 79.8111 65.6575 80.8161 65.6575H83.4762V70.6231H80.7274C79.3087 70.6231 78.1411 71.0074 77.2249 71.7759C76.3086 72.5148 75.8505 73.6675 75.8505 75.2341V87.7368H70.2641ZM97.0832 88.3575C94.896 88.3575 92.96 87.8994 91.2752 86.9831C89.62 86.0372 88.3195 84.7219 87.3736 83.0372C86.4574 81.3229 85.9992 79.313 85.9992 77.0075V76.4755C85.9992 74.17 86.4574 72.1749 87.3736 70.4901C88.2899 68.7758 89.5757 67.4605 91.2309 66.5442C92.8861 65.5984 94.8073 65.1255 96.9945 65.1255C99.1522 65.1255 101.029 65.6132 102.625 66.5885C104.221 67.5344 105.463 68.8645 106.349 70.5788C107.236 72.2635 107.679 74.2291 107.679 76.4755V78.3819H91.6742C91.7333 79.8893 92.2949 81.116 93.359 82.0618C94.423 83.0076 95.7236 83.4805 97.2605 83.4805C98.8271 83.4805 99.9798 83.1406 100.719 82.4608C101.458 81.781 102.019 81.0273 102.404 80.1997L106.97 82.5938C106.556 83.3623 105.95 84.2047 105.152 85.121C104.384 86.0077 103.349 86.7762 102.049 87.4264C100.748 88.0471 99.0931 88.3575 97.0832 88.3575ZM91.7186 74.2143H102.004C101.886 72.9434 101.369 71.9236 100.453 71.1551C99.566 70.3867 98.3985 70.0024 96.9502 70.0024C95.4428 70.0024 94.2457 70.3867 93.359 71.1551C92.4723 71.9236 91.9255 72.9434 91.7186 74.2143ZM112.474 87.7368V56.7016H118.327V69.027H119.125L129.189 56.7016H136.682L123.736 71.9975L137.125 87.7368H129.411L119.125 75.1454H118.327V87.7368H112.474ZM149.775 88.3575C147.588 88.3575 145.652 87.8994 143.967 86.9831C142.312 86.0372 141.012 84.7219 140.066 83.0372C139.15 81.3229 138.691 79.313 138.691 77.0075V76.4755C138.691 74.17 139.15 72.1749 140.066 70.4901C140.982 68.7758 142.268 67.4605 143.923 66.5442C145.578 65.5984 147.5 65.1255 149.687 65.1255C151.844 65.1255 153.721 65.6132 155.317 66.5885C156.913 67.5344 158.155 68.8645 159.042 70.5788C159.928 72.2635 160.372 74.2291 160.372 76.4755V78.3819H144.366C144.426 79.8893 144.987 81.116 146.051 82.0618C147.115 83.0076 148.416 83.4805 149.953 83.4805C151.519 83.4805 152.672 83.1406 153.411 82.4608C154.15 81.781 154.711 81.0273 155.096 80.1997L159.662 82.5938C159.249 83.3623 158.643 84.2047 157.845 85.121C157.076 86.0077 156.042 86.7762 154.741 87.4264C153.441 88.0471 151.785 88.3575 149.775 88.3575ZM144.411 74.2143H154.697C154.578 72.9434 154.061 71.9236 153.145 71.1551C152.258 70.3867 151.091 70.0024 149.642 70.0024C148.135 70.0024 146.938 70.3867 146.051 71.1551C145.164 71.9236 144.618 72.9434 144.411 74.2143ZM167.738 96.604V91.727H179.709C180.536 91.727 180.95 91.2837 180.95 90.3969V84.855H180.152C179.916 85.3574 179.546 85.8599 179.044 86.3624C178.541 86.8648 177.861 87.2786 177.004 87.6038C176.147 87.9289 175.053 88.0915 173.723 88.0915C172.009 88.0915 170.502 87.7072 169.201 86.9387C167.93 86.1407 166.94 85.0471 166.231 83.6579C165.521 82.2687 165.167 80.6726 165.167 78.8696V65.7462H170.753V78.4262C170.753 80.0814 171.152 81.3229 171.95 82.1505C172.778 82.9781 173.945 83.3919 175.452 83.3919C177.167 83.3919 178.497 82.8303 179.443 81.7071C180.389 80.5544 180.861 78.9583 180.861 76.9188V65.7462H186.448V91.6383C186.448 93.1458 186.004 94.3428 185.118 95.2296C184.231 96.1458 183.049 96.604 181.571 96.604H167.738Z" fill="#F0EAE6"/>
</svg>
