<svg width="24" height="24" viewBox="0 0 24 24" xmlns="http://www.w3.org/2000/svg">
<path d="M19.77 7.23L19.78 7.22L16.06 3.5L15 4.56L17.11 6.67C16.17 7.03 15.5 7.93 15.5 9C15.5 9.3283 15.5647 9.65339 15.6903 9.95671C15.8159 10.26 16.0001 10.5356 16.2322 10.7678C16.7011 11.2366 17.337 11.5 18 11.5C18.36 11.5 18.69 11.42 19 11.29V18.5C19 19.05 18.55 19.5 18 19.5C17.45 19.5 17 19.05 17 18.5V14C17 12.9 16.1 12 15 12H14V5C14 3.9 13.1 3 12 3H6C4.9 3 4 3.9 4 5V21H14V13.5H15.5V18.5C15.5 19.163 15.7634 19.7989 16.2322 20.2678C16.7011 20.7366 17.337 21 18 21C18.663 21 19.2989 20.7366 19.7678 20.2678C20.2366 19.7989 20.5 19.163 20.5 18.5V9C20.5 8.31 20.22 7.68 19.77 7.23ZM12 10H6V5H12V10ZM18 10C17.45 10 17 9.55 17 9C17 8.45 17.45 8 18 8C18.55 8 19 8.45 19 9C19 9.55 18.55 10 18 10Z" fill="#FFFFFF"/>
</svg>
